HIERARCHY
ROOT hip
{
  OFFSET 0 0 0
  CHANNELS 6 Xposition Yposition Zposition Zrotation Yrotation Xrotation
  JOINT abdomen
  {
    OFFSET 0 20.6881 -0.73152
    CHANNELS 3 Zrotation Xrotation Yrotation
    JOINT chest
    {
      OFFSET 0 11.7043 -0.48768
      CHANNELS 3 Zrotation Xrotation Yrotation
      JOINT neck
      {
        OFFSET 0 22.1894 -2.19456
        CHANNELS 3 Zrotation Xrotation Yrotation
        JOINT head
        {
          OFFSET -0.24384 7.07133 1.2192
          CHANNELS 3 Zrotation Xrotation Yrotation
          JOINT leftEye
          {
            OFFSET 4.14528 8.04674 8.04672
            CHANNELS 3 Zrotation Xrotation Yrotation
            End Site
            {
              OFFSET 1 0 0
            }
          }
          JOINT rightEye
          {
            OFFSET -3.6576 8.04674 8.04672
            CHANNELS 3 Zrotation Xrotation Yrotation
            End Site
            {
              OFFSET 1 0 0
            }
          }
        }
      }
      JOINT rCollar
      {
        OFFSET -2.68224 19.2634 -4.8768
        CHANNELS 3 Zrotation Xrotation Yrotation
        JOINT rShldr
        {
          OFFSET -8.77824 -1.95073 1.46304
          CHANNELS 3 Zrotation Xrotation Yrotation
          JOINT rForeArm
          {
            OFFSET -28.1742 -1.7115 0.48768
            CHANNELS 3 Zrotation Xrotation Yrotation
            JOINT rHand
            {
              OFFSET -22.5879 0.773209 7.07136
              CHANNELS 3 Zrotation Xrotation Yrotation
              JOINT rThumb1
              {
                OFFSET -1.2192 -0.487915 3.41376
                CHANNELS 3 Zrotation Xrotation Yrotation
                JOINT rThumb2
                {
                  OFFSET -3.37035 -0.52449 3.41376
                  CHANNELS 3 Zrotation Xrotation Yrotation
                  End Site
                  {
                    OFFSET -1.78271 -1.18214 1.43049
                  }
                }
              }
              JOINT rIndex1
              {
                OFFSET -7.75947 0.938293 5.60832
                CHANNELS 3 Zrotation Xrotation Yrotation
                JOINT rIndex2
                {
                  OFFSET -2.54057 -0.884171 1.56538
                  CHANNELS 3 Zrotation Xrotation Yrotation
                  End Site
                  {
                    OFFSET -1.62519 -0.234802 1.16502
                  }
                }
              }
              JOINT rMid1
              {
                OFFSET -8.24714 1.18213 3.41376
                CHANNELS 3 Zrotation Xrotation Yrotation
                JOINT rMid2
                {
                  OFFSET -3.10165 -0.590103 1.0647
                  CHANNELS 3 Zrotation Xrotation Yrotation
                  End Site
                  {
                    OFFSET -2.48547 -0.328903 0.83742
                  }
                }
              }
              JOINT rRing1
              {
                OFFSET -8.82822 0.546677 1.51678
                CHANNELS 3 Zrotation Xrotation Yrotation
                JOINT rRing2
                {
                  OFFSET -2.60934 -0.819778 -0.0198488
                  CHANNELS 3 Zrotation Xrotation Yrotation
                  End Site
                  {
                    OFFSET -2.33842 -0.294052 0.168128
                  }
                }
              }
              JOINT rPinky1
              {
                OFFSET -8.27202 -0.0477905 -0.4584
                CHANNELS 3 Zrotation Xrotation Yrotation
                JOINT rPinky2
                {
                  OFFSET -1.82734 -0.647385 -0.700984
                  CHANNELS 3 Zrotation Xrotation Yrotation
                  End Site
                  {
                    OFFSET -1.69225 -0.51767 -0.607171
                  }
                }
              }
            }
          }
        }
      }
      JOINT lCollar
      {
        OFFSET 2.68224 19.2634 -4.8768
        CHANNELS 3 Zrotation Xrotation Yrotation
        JOINT lShldr
        {
          OFFSET 8.77824 -1.95073 1.46304
          CHANNELS 3 Zrotation Xrotation Yrotation
          JOINT lForeArm
          {
            OFFSET 28.1742 -1.7115 0.48768
            CHANNELS 3 Zrotation Xrotation Yrotation
            JOINT lHand
            {
              OFFSET 22.5879 0.773209 7.07136
              CHANNELS 3 Zrotation Xrotation Yrotation
              JOINT lThumb1
              {
                OFFSET 1.2192 -0.487915 3.41376
                CHANNELS 3 Zrotation Xrotation Yrotation
                JOINT lThumb2
                {
                  OFFSET 3.37035 -0.52449 3.41376
                  CHANNELS 3 Zrotation Xrotation Yrotation
                  End Site
                  {
                    OFFSET 1.78271 -1.18214 1.43049
                  }
                }
              }
              JOINT lIndex1
              {
                OFFSET 7.75947 0.938293 5.60832
                CHANNELS 3 Zrotation Xrotation Yrotation
                JOINT lIndex2
                {
                  OFFSET 2.54057 -0.884171 1.56538
                  CHANNELS 3 Zrotation Xrotation Yrotation
                  End Site
                  {
                    OFFSET 1.62519 -0.234802 1.16502
                  }
                }
              }
              JOINT lMid1
              {
                OFFSET 8.24714 1.18213 3.41376
                CHANNELS 3 Zrotation Xrotation Yrotation
                JOINT lMid2
                {
                  OFFSET 3.10165 -0.590103 1.0647
                  CHANNELS 3 Zrotation Xrotation Yrotation
                  End Site
                  {
                    OFFSET 2.48547 -0.328903 0.83742
                  }
                }
              }
              JOINT lRing1
              {
                OFFSET 8.82822 0.546677 1.51678
                CHANNELS 3 Zrotation Xrotation Yrotation
                JOINT lRing2
                {
                  OFFSET 2.60934 -0.819778 -0.0198488
                  CHANNELS 3 Zrotation Xrotation Yrotation
                  End Site
                  {
                    OFFSET 2.33842 -0.294052 0.168128
                  }
                }
              }
              JOINT lPinky1
              {
                OFFSET 8.27202 -0.0477905 -0.4584
                CHANNELS 3 Zrotation Xrotation Yrotation
                JOINT lPinky2
                {
                  OFFSET 1.82734 -0.647385 -0.700984
                  CHANNELS 3 Zrotation Xrotation Yrotation
                  End Site
                  {
                    OFFSET 1.69225 -0.51767 -0.607171
                  }
                }
              }
            }
          }
        }
      }
    }
  }
  JOINT rButtock
  {
    OFFSET -8.77824 4.35084 1.2192
    CHANNELS 3 Zrotation Xrotation Yrotation
    JOINT rThigh
    {
      OFFSET 0 -1.70687 -2.19456
      CHANNELS 3 Zrotation Xrotation Yrotation
      JOINT rShin
      {
        OFFSET 0 -36.8199 0.73152
        CHANNELS 3 Zrotation Xrotation Yrotation
        JOINT rFoot
        {
          OFFSET 0.73152 -45.1104 -5.12064
          CHANNELS 3 Zrotation Xrotation Yrotation
          End Site
          {
            OFFSET -1.1221 -3.69964 12.103
          }
        }
      }
    }
  }
  JOINT lButtock
  {
    OFFSET 8.77824 4.35084 1.2192
    CHANNELS 3 Zrotation Xrotation Yrotation
    JOINT lThigh
    {
      OFFSET 0 -1.70687 -2.19456
      CHANNELS 3 Zrotation Xrotation Yrotation
      JOINT lShin
      {
        OFFSET 0 -36.8199 0.73152
        CHANNELS 3 Zrotation Xrotation Yrotation
        JOINT lFoot
        {
          OFFSET -0.73152 -45.1104 -5.12064
          CHANNELS 3 Zrotation Xrotation Yrotation
          End Site
          {
            OFFSET 1.1221 -3.69964 12.103
          }
        }
      }
    }
  }
}
MOTION
Frames:	4
Frame Time:	0.00833333
0.0 0.0 0.0 0.0 0.0 0.0 0.0 0.0 0.0 0.0 0.0 0.0 0.0 0.0 0.0 0.0 0.0 0.0 0.0 0.0 0.0 0.0 0.0 0.0 0.0 0.0 0.0 0.0 0.0 0.0 0.0 0.0 0.0 0.0 0.0 0.0 0.0 0.0 0.0 0.0 0.0 0.0 0.0 0.0 0.0 0.0 0.0 0.0 0.0 0.0 0.0 0.0 0.0 0.0 0.0 0.0 0.0 0.0 0.0 0.0 0.0 0.0 0.0 0.0 0.0 0.0 0.0 0.0 0.0 0.0 0.0 0.0 0.0 0.0 0.0 0.0 0.0 0.0 0.0 0.0 0.0 0.0 0.0 0.0 0.0 0.0 0.0 0.0 0.0 0.0 0.0 0.0 0.0 0.0 0.0 0.0 0.0 0.0 0.0 0.0 0.0 0.0 0.0 0.0 0.0 0.0 0.0 0.0 0.0 0.0 0.0 0.0 0.0 0.0 0.0 0.0 0.0 0.0 0.0 0.0 0.0 0.0 0.0 0.0 0.0 0.0 0.0 0.0 0.0 0.0 0.0 0.0
0.4752 63.7526 0.1372 173.464484 54.067942 176.048403 -25.367533 19.252458 81.7761 -6.907879 -10.219653 -74.80883 -0.449921 18.56082 57.402685 -23.100947 -15.403906 -108.132779 7.6e-05 -0.0 -0.004162 -0.005544 0.0 -0.003678 -9.651409 34.836235 11.199053 -108.115125 30.171974 135.623875 -140.047532 -46.544612 -109.881845 0.07372 18.405367 3.075599 -121.365203 30.330063 71.957955 -10.055642 -24.120891 25.773322 -50.387396 40.826257 40.024231 18.911493 -19.215431 -3.400706 10.383168 -32.500317 -3.262582 -3.142625 16.880206 3.209408 -0.000393 0.063952 0.018908 -156.586975 -34.932333 175.972604 -144.163186 8.940469 -140.920146 1.531745 -2.061653 -2.643315 142.646259 40.016763 -147.040317 80.845518 5.553273 -67.775279 -95.843663 -40.064978 106.669902 49.071076 44.29694 -28.947772 169.571877 -7.254015 -89.929324 -178.466206 -17.728569 -93.598926 -73.420373 -73.571 -26.561892 3.164406 28.729111 -3.501565 163.730649 -16.35815 -144.462126 4.900806 20.727485 -4.655952 145.119712 0.226759 179.199191 66.980598 87.686531 -80.230172 134.695892 -14.105844 132.11445 -16.570997 41.540948 -6.065802 -0.0 -8.5e-05 -0.001903 -62.816591 -54.614916 -58.476278 -11.780972 79.585336 83.417565 -157.023772 -26.980797 99.91608 179.983335 75.748198 0.011402 -142.342575 42.895052 -48.587004 -61.290068 50.737289 -34.116832 -11.9275 76.585308 120.338051
0.8370000000000001 64.0321 0.2075 173.626136 53.662178 175.89673 -20.062828 18.907045 -101.189267 6.5001 6.316217 105.662992 -15.248979 17.867371 -28.149977 27.867995 -14.902323 -14.548811 0.000123 -0.0 -0.000488 0.000123 -0.0 -0.000488 3.540292 -62.052973 -13.041521 -131.163553 -19.835163 -157.332315 -161.324901 -62.753654 -116.093121 -6.737812 43.409763 4.667036 -171.705764 -9.388611 89.948483 -4.862889 -51.445987 6.498774 159.640586 -69.97327 102.394084 177.270549 -51.315377 107.425749 68.984383 -80.153825 40.577313 86.335758 -78.169101 57.800978 -0.000607 0.063967 0.019683 -128.393591 -84.37983 -150.45505 -163.032091 73.432455 -150.723559 14.712579 41.387743 6.612559 155.578994 -3.999765 -161.940251 18.463466 -68.68064 -45.895758 -51.352505 -1.633474 -168.749941 54.209198 47.320818 -34.067081 -166.414035 -29.123288 -85.723073 170.19731 -7.297473 -101.463031 172.896773 -51.894005 -120.181027 85.657977 55.54924 -70.366708 -89.034772 -81.393646 -59.757915 178.731178 -46.136964 -141.834188 0.006755 3.473908 -1.091431 -4.02278 41.429003 -7.697258 25.537652 -38.08766 24.598123 -2.30978 -2.406871 1.051907 -0.003734 -1.5e-05 -0.001867 -64.125984 -53.20435 -0.0 76.091932 44.504273 -158.646424 129.99976 28.586536 -40.800521 -179.995917 75.749657 -0.004213 -143.672508 43.232278 33.198497 75.543616 35.680453 83.963005 -52.317032 6.525619 -145.456416
1.2975999999999999 64.3625 0.2964 173.463173 53.467251 175.483959 -24.402506 20.097932 79.288338 -6.364267 -11.48408 -74.450819 -15.707899 32.905833 -123.809202 27.970432 36.741623 70.030649 -0.000718 0.0 -0.002872 -0.001356 -0.0 0.001858 -44.928402 -86.287081 -66.536467 131.144522 63.421638 -107.021439 -10.289288 14.533067 59.612944 -4.753288 36.865893 3.852077 -178.518829 -16.064509 89.475124 -98.342695 16.034515 40.014932 73.419422 -73.571615 26.562443 -165.584168 -30.177725 113.927161 -151.476486 17.841679 137.538752 -111.611762 59.709085 102.196852 0.001383 0.063736 0.020707 -52.842397 -86.666782 -74.336523 -157.328382 57.246176 -150.513654 15.214916 41.782806 6.326751 0.048528 0.292299 -0.066244 -177.439717 85.655873 96.599087 36.054493 -68.061322 -77.375006 7.509569 -45.703382 10.106085 -176.50568 -20.695083 -88.628112 -120.984225 -67.585017 -92.338956 159.054588 -31.31977 -122.653338 154.095173 -3.498232 -118.939852 167.375271 -28.008628 -145.268381 -3.359683 -0.630232 -0.26511 -0.005672 1.771529 -0.555531 155.57194 -1.327603 -172.006556 144.108934 8.781739 140.874932 24.126208 -39.123842 25.601322 179.999389 75.751132 0.0 147.874442 4.655899 2.20628 -47.774366 69.83876 -29.532114 44.511993 39.944238 34.668398 0.001343 0.000149 0.001343 29.321395 -24.319763 -180.0 56.391646 -59.00863 133.671429 44.734495 -7.55983 119.148129
